# xmcd
#
# Track frame offsets: 
#        150
#        12849
#        27591
#        42941
#        53713
#        67637
#        80065
#        93835
#        112021
#        124402
#
# Disc length: 1897 seconds
#
# Revision: 2
# Processed by: cddbd v1.5.2PL0 Copyright (c) Steve Scherf et al.
# Submitted via: ExactAudioCopy v1.1
#
DISCID=7d07670a
DTITLE=The Gatlin Brothers - The Gatlin Brothers Greatest Hits
DYEAR=1998
DGENRE=Country
TTITLE0=All The Gold in California
TTITLE1=I Just Wish You Were Someone I Love
TTITLE2=Bitter They Are, Harder They Fall
TTITLE3=I Don't Wanna Cry
TTITLE4=Houston (Means I'm One Day Closer To You)
TTITLE5=Broken Lady
TTITLE6=Night Time Magic
TTITLE7=I've Done Enough Dyin' Today
TTITLE8=Statues Without Hearts
TTITLE9=Love is Just a Game
EXTD=
EXTT0=
EXTT1=
EXTT2=
EXTT3=
EXTT4=
EXTT5=
EXTT6=
EXTT7=
EXTT8=
EXTT9=
PLAYORDER=
